HIERARCHY
ROOT Hips
{
	OFFSET -0.001795 -0.223333 0.028219
	CHANNELS 6 Xposition Yposition Zposition Zrotation Yrotation Xrotation 
	JOINT LeftUpLeg
	{
		OFFSET 0.069520 -0.091406 -0.006815
		CHANNELS 3 Zrotation Yrotation Xrotation
		JOINT LeftLeg
		{
			OFFSET 0.034277 -0.375199 -0.004496
			CHANNELS 3 Zrotation Yrotation Xrotation
			JOINT LeftFoot
			{
				OFFSET -0.013596 -0.397961 -0.043693
				CHANNELS 3 Zrotation Yrotation Xrotation
				JOINT LeftToe
				{
					OFFSET 0.026358 -0.055791 0.119288
					CHANNELS 3 Zrotation Yrotation Xrotation
					End Site
					{
						OFFSET 0.000000 0.000000 0.000000
					}
				}
			}
		}
	}
	JOINT RightUpLeg
	{
		OFFSET -0.067670 -0.090522 -0.004320
		CHANNELS 3 Zrotation Yrotation Xrotation
		JOINT RightLeg
		{
			OFFSET -0.038290 -0.382569 -0.008850
			CHANNELS 3 Zrotation Yrotation Xrotation
			JOINT RightFoot
			{
				OFFSET 0.015774 -0.398415 -0.042312
				CHANNELS 3 Zrotation Yrotation Xrotation
				JOINT RightToe
				{
					OFFSET -0.025372 -0.048144 0.123348
					CHANNELS 3 Zrotation Yrotation Xrotation
					End Site
					{
						OFFSET 0.000000 0.000000 0.000000
					}
				}
			}
		}
	}
	JOINT Spine
	{
		OFFSET -0.002533 0.108963 -0.026696
		CHANNELS 3 Zrotation Yrotation Xrotation
		JOINT Spine1
		{
			OFFSET 0.005487 0.135180 0.001092
			CHANNELS 3 Zrotation Yrotation Xrotation
			JOINT Spine2
			{
				OFFSET 0.001457 0.052922 0.025425
				CHANNELS 3 Zrotation Yrotation Xrotation
				JOINT Neck
				{
					OFFSET -0.002778 0.213870 -0.042857
					CHANNELS 3 Zrotation Yrotation Xrotation
					JOINT Head
					{
						OFFSET 0.005152 0.064970 0.051349
						CHANNELS 3 Zrotation Yrotation Xrotation
						End Site
						{
							OFFSET 0.000000 0.000000 0.000000
						}
					}
				}
				JOINT LeftShoulder
				{
					OFFSET 0.078845 0.121749 -0.034090
					CHANNELS 3 Zrotation Yrotation Xrotation
					JOINT LeftArm
					{
						OFFSET 0.090977 0.030469 -0.008868
						CHANNELS 3 Zrotation Yrotation Xrotation
						JOINT LeftForeArm
						{
							OFFSET 0.259612 -0.012772 -0.027456
							CHANNELS 3 Zrotation Yrotation Xrotation
							JOINT LeftHand
							{
								OFFSET 0.249234 0.008986 -0.001171
								CHANNELS 3 Zrotation Yrotation Xrotation
								End Site
								{
									OFFSET 0.000000 0.000000 0.000000
								}
							}
						}
					}
				}
				JOINT RightShoulder
				{
					OFFSET -0.081759 0.118833 -0.038615
					CHANNELS 3 Zrotation Yrotation Xrotation
					JOINT RightArm
					{
						OFFSET -0.096012 0.032551 -0.009143
						CHANNELS 3 Zrotation Yrotation Xrotation
						JOINT RightForeArm
						{
							OFFSET -0.253742 -0.013329 -0.021401
							CHANNELS 3 Zrotation Yrotation Xrotation
							JOINT RightHand
							{
								OFFSET -0.255298 0.007772 -0.005559
								CHANNELS 3 Zrotation Yrotation Xrotation
								End Site
								{
									OFFSET 0.000000 0.000000 0.000000
								}
							}
						}
					}
				}
			}
		}
	}
}
MOTION
Frames: 6
Frame Time: 0.050000
0.000000 0.945448 0.000000 0.354261 -2.540553 4.460032 4.357626 -0.186574 -1.947716 -1.142480 0.295358 -6.692376 1.736639 7.035934 11.498136 0.000000 0.000000 0.000000 -3.067331 0.330230 -2.887015 -1.066784 -0.072831 -3.678935 -1.435322 -7.308386 9.591692 0.000000 0.000000 0.000000 4.804653 0.138888 -2.978261 -2.494607 1.169273 -2.150068 -3.825685 3.929167 6.796046 4.243757 -2.591595 -5.384947 0.000000 0.000000 0.000000 -17.266731 -1.514929 -1.543042 -53.705689 -6.076318 -3.791654 -7.187770 -19.331308 1.849296 0.000000 0.000000 0.000000 15.140886 -6.395820 -3.958477 63.981763 3.527030 -4.340587 4.657338 22.554547 1.790738 0.000000 0.000000 0.000000 
0.000400 0.944425 0.000595 0.324127 -2.580632 4.883133 4.468515 -0.161437 -1.379376 -1.014704 0.327432 -8.069708 1.804732 7.180865 11.659747 0.000000 0.000000 0.000000 -3.093355 0.368642 -3.358966 -1.129465 -0.057435 -3.438608 -1.516322 -7.548830 9.841655 0.000000 0.000000 0.000000 5.818248 0.156038 -3.208654 -2.859854 1.331630 -2.230593 -4.984315 4.120321 6.398736 3.754909 -2.192656 -5.412358 0.000000 0.000000 0.000000 -17.849400 -0.876678 -2.049325 -52.515990 -5.922682 -3.701489 -7.394606 -19.487726 1.880574 0.000000 0.000000 0.000000 14.909592 -7.334351 -4.350052 65.104357 2.371672 -4.948642 5.147403 23.316785 1.970681 0.000000 0.000000 0.000000 
0.000707 0.944349 0.000756 0.746308 -2.493547 4.897489 4.047674 -0.190803 -1.932147 -0.990815 0.279762 -6.437338 1.330109 6.189472 10.822124 0.000000 0.000000 0.000000 -3.436634 0.395203 -3.685277 -1.270062 -0.028875 -3.062922 -2.129497 -8.694042 9.664306 0.000000 0.000000 0.000000 5.672151 0.162136 -3.289510 -2.904272 1.344933 -2.848309 -5.455612 3.926852 6.654021 3.163161 -1.839578 -4.814949 0.000000 0.000000 0.000000 -17.588051 -1.399671 -1.714174 -52.409889 -5.883284 -3.749108 -6.760392 -18.380735 1.678509 0.000000 0.000000 0.000000 16.282920 -6.770281 -4.240521 63.423921 1.965121 -5.158608 5.713781 22.954192 2.035512 0.000000 0.000000 0.000000 
0.000882 0.944336 0.000954 1.037447 -2.092465 5.039345 4.112189 -0.201381 -2.040664 -1.359413 0.311485 -6.962434 0.823894 5.575553 11.528317 0.000000 0.000000 0.000000 -3.693498 0.415226 -3.960718 -1.360637 -0.031784 -3.267537 -2.466174 -9.529509 10.496409 0.000000 0.000000 0.000000 5.683316 0.165852 -3.373379 -3.159239 1.467887 -2.271682 -5.579445 3.475957 5.767387 2.661364 -1.606892 -3.734222 0.000000 0.000000 0.000000 -17.822985 -1.037136 -1.925195 -52.321008 -6.085911 -3.561507 -5.854204 -18.190318 1.515777 0.000000 0.000000 0.000000 15.828677 -7.288019 -4.501852 63.542012 1.211703 -5.458373 6.742026 23.676415 2.289151 0.000000 0.000000 0.000000 
0.001041 0.944418 0.001137 1.317595 -1.949874 4.923031 3.475923 -0.190398 -1.885516 -0.827918 0.284210 -6.970866 0.611048 5.165309 11.268677 0.000000 0.000000 0.000000 -3.860299 0.406819 -3.849134 -1.742422 -0.018530 -3.537433 -2.531599 -9.671945 10.621730 0.000000 0.000000 0.000000 5.560397 0.168648 -3.394715 -3.079214 1.435079 -2.088904 -5.938290 3.563245 5.809921 2.124585 -1.172425 -3.833286 0.000000 0.000000 0.000000 -17.967778 -1.351175 -1.836440 -51.972437 -6.597161 -3.310733 -5.816059 -17.432472 1.440363 0.000000 0.000000 0.000000 15.938587 -7.368215 -4.515273 63.187981 1.206994 -5.430830 6.842816 23.278706 2.273774 0.000000 0.000000 0.000000 
0.001107 0.944675 0.001314 1.629563 -1.847169 4.974482 3.351286 -0.183954 -1.773385 -1.054111 0.299113 -7.113016 0.560549 5.133819 11.413780 0.000000 0.000000 0.000000 -3.962919 0.403386 -3.789562 -2.085997 -0.010256 -3.817494 -2.699809 -10.083364 11.039858 0.000000 0.000000 0.000000 5.467147 0.181515 -3.559411 -3.187362 1.483928 -2.116656 -6.083973 3.611214 5.962492 1.941836 -1.089133 -3.354109 0.000000 0.000000 0.000000 -18.251367 -1.346013 -1.902794 -51.810067 -6.895427 -3.174141 -5.169368 -16.916085 1.301758 0.000000 0.000000 0.000000 15.855271 -7.297019 -4.443666 63.338363 1.247733 -5.425258 6.596266 23.066323 2.210042 0.000000 0.000000 0.000000 
